<svg width="170" height="135" viewBox="0 0 170 135" fill="none" xmlns="http://www.w3.org/2000/svg">
<path d="M158.631 16.5016C176.695 37.2111 168.222 62.5147 160.425 74.8759C159.289 76.6763 158.245 78.4844 157.101 80.2796C142.869 102.617 69.1625 156.582 25.1274 122.453C-20.8514 86.817 4.50056 47.4309 35.7904 22.0513C63.0651 -0.0715086 134.294 -11.3985 158.631 16.5016Z" fill="#FFECBA" fill-opacity="0.55"/>
<path d="M98.805 134.521C92.9816 131.044 9.80265 133.652 35.5299 76.8955C61.2571 20.1391 131.572 -10.0209 147.304 25.1802C163.036 60.3813 119.23 111.401 75.946 115.139C32.6616 118.876 4.06616 93.1488 19.798 64.7272C35.5299 36.3055 109.322 -2.71993 123.055 29.7868C136.787 62.2935 119.23 95.6694 75.946 97.6685C32.6616 99.6675 13.7139 87.2385 34.2261 56.2094C54.7384 25.1802 106.888 22.4858 105.15 39.3476C103.412 56.2094 100.456 81.3282 54.5646 78.0254C8.67273 74.7226 114.711 19.4437 161.037 36.7401" stroke="#D8C89C"/>
</svg>
